<?xml version="1.0" encoding="UTF-8"?>
<svg width="16" height="16" version="1.1" viewBox="0 0 16 16" xml:space="preserve" xmlns="http://www.w3.org/2000/svg"><style type="text/css">
	.st0{fill:#D9D600;}
	.st1{fill:#30562A;}
	.st2{fill:#FFFFFF;}
</style><g transform="translate(-51.819 -35.357)" fill="#bec0c8" fill-opacity=".50196"><path transform="translate(60.403 43.012)" d="m-0.58386-7.6552a8 8 0 0 0-8 8 8 8 0 0 0 8 8 8 8 0 0 0 8-8 8 8 0 0 0-8-8z" fill="#fff" fill-opacity="1" fill-rule="evenodd" stroke-linecap="square" stroke-linejoin="bevel" stroke-opacity=".3" stroke-width="5"/><g transform="matrix(.26528 0 0 -.26528 96.62 62.698)"><path transform="matrix(.28116 0 0 .28116 -118.56 61.712)" d="m0 0c-0.182 0.477-0.352 1.004-0.51 1.582-0.159 0.578-0.317 1.184-0.475 1.818-0.16-0.634-0.319-1.24-0.477-1.818s-0.328-1.105-0.51-1.582l-9.452-30.701h-10.404l-15.3 49.537h9.656c0.997 0 1.83-0.227 2.499-0.68 0.668-0.453 1.106-1.054 1.309-1.801l6.801-25.841c0.203-0.815 0.407-1.705 0.611-2.668 0.204-0.965 0.408-1.967 0.612-3.01 0.409 2.131 0.907 4.023 1.496 5.678l8.024 25.841c0.204 0.633 0.641 1.207 1.309 1.717s1.479 0.764 2.431 0.764h3.401c0.997 0 1.801-0.231 2.414-0.697 0.611-0.465 1.076-1.059 1.393-1.784l7.956-25.841c0.589-1.586 1.088-3.389 1.496-5.407 0.182 1.022 0.368 1.979 0.562 2.873 0.191 0.897 0.39 1.741 0.595 2.534l6.799 25.841c0.182 0.657 0.613 1.235 1.292 1.733 0.68 0.498 1.496 0.748 2.449 0.748h7.496c1.346 6.787 2.058 13.801 2.058 20.983 0 59.236-48.021 107.26-107.26 107.26s-107.26-48.022-107.26-107.26c0-59.237 48.021-107.26 107.26-107.26 32.331 0 61.32 14.306 80.984 36.931z" fill="#e64c43" fill-opacity="1"/></g></g></svg>
