<?xml version="1.0" encoding="UTF-8"?>
<svg width="200" height="31.887" version="1.1" viewBox="0 0 200 31.887" xmlns="http://www.w3.org/2000/svg">
	<g fill="currentColor" fill-rule="evenodd" stroke-linecap="square" stroke-linejoin="bevel" stroke-opacity=".3" stroke-width="5">
		<path transform="matrix(.72537 0 0 .72537 -65.166 -395.61)" d="m89.838 550.07 9.92 30.64h8.2l5.48-18.32 5.68 18.32h8.24l9.84-30.64h-8.08l-6.16 20.24-6.56-20.24h-5.76l-6.48 20.32-6.16-20.32z" style="white-space:pre"/>
		<path transform="matrix(.72537 0 0 .72537 -65.166 -395.61)" d="m145.84 580.71v-24.56h-7.44v24.56zm-8.16-30.8c0 2.52 1.96 4.48 4.4 4.48 2.56 0 4.6-2.04 4.6-4.56 0-2.48-2.04-4.44-4.52-4.44s-4.48 2.04-4.48 4.52z" style="white-space:pre"/>
		<path transform="matrix(.72537 0 0 .72537 -65.166 -395.61)" d="m147.84 563.67c0 8.64 11 7.04 11 10.08 0 1.16-1.44 1.72-2.64 1.72-2.2 0-3.44-2.16-3.44-2.16l-5.72 2.88c1.92 3.6 4.96 5.12 9.08 5.12 5.2 0 9.84-2.84 9.84-8.16 0-8.4-11.32-7.28-11.32-10.04 0-0.96 0.76-1.48 1.96-1.48 2.16 0 3.04 1.92 3.04 1.92l5.64-2.48c-1.52-3.44-4.52-5.4-8.04-5.4-5.44 0-9.4 3.24-9.4 8z" style="white-space:pre"/>
		<path transform="matrix(.72537 0 0 .72537 -65.166 -395.61)" d="m192.92 580.71v-30.64h-7.4v8.4s-2.84-2.8-7.12-2.8c-7.24 0-11.8 6.28-11.8 12.96 0 6.84 4.24 12.68 11.16 12.68 3.24 0 5.6-0.92 7.88-3.16v2.56zm-18.76-12.2c0-3.12 2.16-5.92 5.92-5.92 3.48 0 5.8 2.56 5.8 6 0 3.4-2.16 6.08-6.04 6.08-3.4 0-5.68-2.76-5.68-6.16z" style="white-space:pre"/>
		<path transform="matrix(.72537 0 0 .72537 -65.166 -395.61)" d="m194.92 568.55c0 6.84 5.76 13 13.28 13 8 0 13.4-5.64 13.4-13.12 0-7.4-5.8-12.76-13.24-12.76-7.56 0-13.44 5.52-13.44 12.88zm13.4-5.88c3.48 0 5.88 2.48 5.88 5.64 0 3.84-2.24 6.2-5.92 6.2-3.4 0-5.92-2.56-5.92-5.84 0-3.36 2.36-6 5.96-6z" style="white-space:pre"/>
		<path transform="matrix(.72537 0 0 .72537 -65.166 -395.61)" d="m252.8 555.67c-4.48 0-6.08 1.88-8.04 3.92-1.2-2.28-3.68-3.92-6.92-3.92-4.16 0-6.92 3.68-6.92 3.68v-3.2h-7.32v24.56h7.48v-13.44c0-3.04 1.6-4.76 4-4.76 2.32 0 3.2 1.12 3.2 3.8v14.4h7.56v-13.4c0-2.96 1.6-4.8 4-4.8s3.36 1.12 3.36 3.88v14.4h7.48v-16.88c0-4.64-3-8.24-7.88-8.24z" style="white-space:pre"/>
		<g fill="#e64c43">
			<path transform="matrix(.72537 0 0 .72537 -65.166 -395.61)" d="m263.88 550.07v30.64h7.28v-2.56c2.28 2.24 4.68 3.16 7.92 3.16 6.92 0 11.28-6 11.28-12.84 0-6.68-4.28-12.8-11.52-12.8-4.28 0-7.56 2.8-7.56 2.8v-8.4zm13.28 12.48c3.36 0 5.8 2.64 5.8 5.76 0 3.48-1.84 6.4-5.48 6.4-3.88 0-6.4-2.44-6.4-6.24 0-3.56 2.6-5.92 6.08-5.92z" style="white-space:pre"/>
			<path transform="matrix(.72537 0 0 .72537 -65.166 -395.61)" d="m299.8 580.71v-30.64h-7.44v30.64z" style="white-space:pre"/>
			<path transform="matrix(.72537 0 0 .72537 -65.166 -395.61)" d="m301.8 568.55c0 6.84 5.76 13 13.28 13 8 0 13.4-5.64 13.4-13.12 0-7.4-5.8-12.76-13.24-12.76-7.56 0-13.44 5.52-13.44 12.88zm13.4-5.88c3.48 0 5.88 2.48 5.88 5.64 0 3.84-2.24 6.2-5.92 6.2-3.4 0-5.92-2.56-5.92-5.84 0-3.36 2.36-6 5.96-6z" style="white-space:pre"/>
			<path transform="matrix(.72537 0 0 .72537 -65.166 -395.61)" d="m329.28 567.95c0 6.68 4.32 11.96 10.68 11.96 2.92 0 5.6-1.56 7.04-2.84 0.08 0.64 0.04 1.2 0.04 1.84 0 2.68-2.4 3.88-5 3.88-1.84 0-2.88-0.32-3.92-2h-8.36c0.8 5.52 6.08 8.56 12.12 8.56 6.88 0 12.6-3.96 12.6-11.56v-21.64h-7.12v2.76c-2.12-2.24-4.24-3.24-7.36-3.24-6.48 0-10.72 5.64-10.72 12.28zm12.44-5.92c3.84 0 5.68 2.64 5.68 5.92 0 2.76-2 5.72-5.72 5.72-3.28 0-5.16-2.6-5.16-5.76 0-3.04 1.72-5.88 5.2-5.88z" style="white-space:pre"/>
			<path transform="matrix(.72537 0 0 .72537 -65.166 -395.61)" d="m360.96 572.63c-2.52 0-4.6 2.08-4.6 4.6s2.08 4.6 4.6 4.6 4.6-2.08 4.6-4.6-2.08-4.6-4.6-4.6z" style="white-space:pre"/>
		</g>
	</g>
</svg>
